<svg xmlns="http://www.w3.org/2000/svg" fill="none" viewBox="0 0 1280 640">
  <rect width="1280" height="640" fill="#020506" fill-opacity=".8" rx="15"/>
  <path fill="#fff" d="M533.066 331v-21.84h1.26l9 13.11 9-13.11h1.26V331h-1.35v-19.47l-8.88 12.84h-.09l-8.91-12.84V331h-1.29Zm49.474 0v-21.84h1.35V331h-1.35Zm30.332 0v-21.84h1.26l15.51 19.53v-19.53h1.29V331h-1.02l-15.75-19.8V331h-1.29Zm47.013 0v-21.84h1.35V331h-1.35Zm30.332 0v-21.84h15.3v1.23h-13.95v9.33h12.57v1.23h-12.57V331h-1.35Zm49.398 0v-8.79l-9.33-13.05h1.68l8.34 11.85 8.37-11.85h1.59l-9.3 13.02V331h-1.35Z"/>
</svg>
